
<svg xmlns="http://www.w3.org/2000/svg" viewBox="0 0 24 24" width="100" height="100" fill="#181717">
  <path d="M12 0C5.37 0 0 5.37 0 12c0 5.3 3.438 9.799 8.207 11.387.6.111.793-.261.793-.578 0-.285-.01-1.04-.015-2.04-3.338.726-4.042-1.61-4.042-1.61-.546-1.387-1.333-1.755-1.333-1.755-1.09-.744.083-.729.083-.729 1.205.084 1.839 1.237 1.839 1.237 1.07 1.836 2.809 1.305 3.492.997.108-.775.42-1.305.762-1.605-2.665-.303-5.466-1.333-5.466-5.933 0-1.311.469-2.383 1.236-3.222-.123-.303-.536-1.523.117-3.176 0 0 1.008-.323 3.3 1.23.957-.266 1.983-.398 3.003-.403 1.02.005 2.046.137 3.006.403 2.288-1.554 3.294-1.23 3.294-1.23.655 1.653.242 2.873.12 3.176.77.839 1.235 1.911 1.235 3.222 0 4.61-2.805 5.625-5.475 5.922.432.372.816 1.102.816 2.222 0 1.605-.015 2.898-.015 3.292 0 .32.192.694.8.578C20.565 21.795 24 17.295 24 12c0-6.63-5.373-12-12-12z"/>
</svg>
