
<svg xmlns="http://www.w3.org/2000/svg" viewBox="0 0 24 24" width="100" height="100" fill="#0077B5">
  <path d="M22.23 0H1.77C.79 0 0 .774 0 1.727v20.545C0 23.226.79 24 1.77 24h20.455C23.21 24 24 23.226 24 22.272V1.727C24 .774 23.21 0 22.23 0zM7.12 20.452H3.56V9h3.56v11.452zM5.34 7.672a2.065 2.065 0 1 1 0-4.13 2.065 2.065 0 0 1 0 4.13zM20.452 20.452h-3.56v-5.6c0-1.338-.028-3.06-1.867-3.06-1.868 0-2.155 1.46-2.155 2.967v5.693h-3.56V9h3.415v1.56h.05c.475-.897 1.635-1.84 3.364-1.84 3.594 0 4.26 2.366 4.26 5.444v6.288z"/>
</svg>
